<?xml version="1.0" encoding="UTF-8"?>
<svg width="1024" height="1024" viewBox="0 0 1024 1024" fill="none" xmlns="http://www.w3.org/2000/svg">
  <!-- Background -->
  <rect width="1024" height="1024" rx="220" fill="#111827"/>

  <!-- Funnel (emerald) -->
  <g transform="translate(192,160)">
    <path d="M128 0 H512 a32 32 0 0 1 26 50 L384 256 v128 a40 40 0 0 1 -40 40 h-72 a40 40 0 0 1 -40 -40 V256 L102 50 A32 32 0 0 1 128 0Z" fill="#22C55E"/>
  </g>

  <!-- Red W dissolving into pixels at rim -->
  <g transform="translate(300,210)">
    <!-- W base (zig-zag) -->
    <path d="M0 0 L60 90 L120 0 L180 90 L240 0" stroke="#EF4444" stroke-width="40" stroke-linecap="round" stroke-linejoin="round"/>
    <!-- Pixelated particles (above rim, some neutral/green fall through) -->
    <rect x="18" y="-28" width="16" height="16" fill="#EF4444"/>
    <rect x="104" y="-20" width="14" height="14" fill="#EF4444"/>
    <rect x="196" y="-32" width="15" height="15" fill="#EF4444"/>
  </g>

  <!-- Passing particles (neutral/green) inside funnel stem -->
  <g transform="translate(470,416)">
    <circle cx="0" cy="0" r="7" fill="#CBD5E1"/>
    <circle cx="28" cy="40" r="8" fill="#22C55E"/>
    <circle cx="-26" cy="72" r="6" fill="#94A3B8"/>
  </g>

  <!-- Ticket (approved) with check emboss -->
  <g transform="translate(260,640)">
    <path d="M60 0 h444 a56 56 0 0 1 0 112 H60 a56 56 0 0 1 0 -112Z" fill="#22C55E"/>
    <circle cx="60" cy="56" r="28" fill="#111827"/>
    <circle cx="504" cy="56" r="28" fill="#111827"/>
    <!-- Check mark (emboss look) -->
    <path d="M240 58 l28 28 l62 -62" stroke="#F3F4F6" stroke-width="18" stroke-linecap="round" stroke-linejoin="round"/>
  </g>
</svg>
