<?xml version="1.0" encoding="UTF-8"?>
<svg width="1024" height="1024" viewBox="0 0 1024 1024" fill="none" xmlns="http://www.w3.org/2000/svg">
  <!-- Background (white) -->
  <rect width="1024" height="1024" rx="220" fill="#FFFFFF"/>

  <!-- Funnel (emerald) -->
  <g transform="translate(192,160)">
    <path d="M128 0 H512 a32 32 0 0 1 26 50 L384 256 v128 a40 40 0 0 1 -40 40 h-72 a40 40 0 0 1 -40 -40 V256 L102 50 A32 32 0 0 1 128 0Z" fill="#22C55E"/>
    <!-- Rim emphasis line -->
    <path d="M128 0 H512" stroke="#0EA36E" stroke-opacity="0.6" stroke-width="16" stroke-linecap="round"/>
  </g>

  <!-- Oblique Red W (in FRONT of funnel, slightly higher to sit within rim) -->
  <g transform="translate(392,284) rotate(-15 120 45)">
    <path d="M0 0 L60 90 L120 0 L180 90 L240 0" stroke="#EF4444" stroke-width="40" stroke-linecap="round" stroke-linejoin="round"/>
    <!-- A couple of particles above rim -->
    <circle cx="28" cy="-22" r="9" fill="#EF4444"/>
    <circle cx="210" cy="-30" r="8" fill="#EF4444"/>
  </g>

  <!-- Film Reel (replaces ticket), tilted as if exiting -->
  <g transform="translate(240,616) rotate(-10 292 72)">
    <!-- Reel outer body -->
    <circle cx="292" cy="72" r="96" fill="#E5E7EB" stroke="#64748B" stroke-width="10"/>
    <!-- Inner ring accent -->
    <circle cx="292" cy="72" r="68" fill="none" stroke="#22C55E" stroke-width="8" opacity="0.85"/>
    <!-- Center hub -->
    <circle cx="292" cy="72" r="14" fill="#94A3B8"/>
    <!-- Spoke holes (cutouts appear white on white bg) -->
    <circle cx="292" cy="-8" r="16" fill="#FFFFFF"/>
    <circle cx="351" cy="14" r="16" fill="#FFFFFF"/>
    <circle cx="374" cy="72" r="16" fill="#FFFFFF"/>
    <circle cx="351" cy="130" r="16" fill="#FFFFFF"/>
    <circle cx="292" cy="152" r="16" fill="#FFFFFF"/>
    <circle cx="233" cy="130" r="16" fill="#FFFFFF"/>
    <circle cx="210" cy="72" r="16" fill="#FFFFFF"/>
    <circle cx="233" cy="14" r="16" fill="#FFFFFF"/>
  </g>
</svg>
